<svg xmlns="http://www.w3.org/2000/svg" width="720" height="300" font-family="ui-monospace,monospace" font-size="11">
<rect width="720" height="300" fill="#14161a"/>
<line x1="46" y1="254.0" x2="674" y2="254.0" stroke="#2a2e35"/>
<text x="8" y="258.0" fill="#7a828e">0%</text>
<line x1="46" y1="202.0" x2="674" y2="202.0" stroke="#2a2e35"/>
<text x="8" y="206.0" fill="#7a828e">25%</text>
<line x1="46" y1="150.0" x2="674" y2="150.0" stroke="#2a2e35"/>
<text x="8" y="154.0" fill="#7a828e">50%</text>
<line x1="46" y1="98.0" x2="674" y2="98.0" stroke="#2a2e35"/>
<text x="8" y="102.0" fill="#7a828e">75%</text>
<line x1="46" y1="46.0" x2="674" y2="46.0" stroke="#2a2e35"/>
<text x="8" y="50.0" fill="#7a828e">100%</text>
<line x1="46" y1="150.0" x2="674" y2="150.0" stroke="#444a55" stroke-dasharray="4 4"/>
<polyline points="46.0,46.0 51.4,46.0 56.7,46.0 62.1,46.0 67.5,46.0 72.8,46.0 78.2,46.0 83.6,46.0 88.9,46.0 94.3,46.0 99.7,46.0 105.0,46.0 110.4,46.0 115.8,46.0 121.1,46.0 126.5,46.0 131.9,46.0 137.2,46.0 142.6,46.0 148.0,46.0 153.4,46.0 158.7,46.0 164.1,46.0 169.5,46.0 174.8,46.0 180.2,46.0 185.6,46.0 190.9,46.0 196.3,46.0 201.7,46.0 207.0,46.0 212.4,46.0 217.8,46.0 223.1,46.0 228.5,46.0 233.9,46.0 239.2,46.0 244.6,46.0 250.0,46.0 255.3,46.0 260.7,46.0 266.1,46.0 271.4,46.0 276.8,46.0 282.2,46.0 287.5,46.0 292.9,46.0 298.3,46.0 303.6,46.0 309.0,46.0 314.4,46.0 319.7,46.0 325.1,46.0 330.5,46.0 335.8,46.0 341.2,46.0 346.6,46.0 351.9,46.0 357.3,46.0 362.7,46.0 368.1,46.0 373.4,46.0 378.8,46.0 384.2,46.0 389.5,46.0 394.9,46.0 400.3,46.0 405.6,46.0 411.0,46.0 416.4,46.0 421.7,46.0 427.1,46.0 432.5,46.0 437.8,46.0 443.2,46.0 448.6,46.0 453.9,46.0 459.3,46.0 464.7,46.0 470.0,46.0 475.4,46.0 480.8,46.0 486.1,46.0 491.5,46.0 496.9,46.0 502.2,46.0 507.6,46.0 513.0,46.0 518.3,46.0 523.7,46.0 529.1,46.0 534.4,46.0 539.8,46.0 545.2,46.0 550.5,46.0 555.9,46.0 561.3,46.0 566.6,46.0 572.0,46.0 577.4,46.0 582.8,46.0 588.1,46.0 593.5,46.0 598.9,46.0 604.2,46.0 609.6,46.0 615.0,46.0 620.3,46.0 625.7,46.0 631.1,46.0 636.4,46.0 641.8,46.0 647.2,46.0 652.5,46.0 657.9,46.0 663.3,46.0 668.6,46.0 674.0,46.0" fill="none" stroke="#10b981" stroke-width="2"/>
<polyline points="46.0,254.0 51.4,254.0 56.7,254.0 62.1,254.0 67.5,254.0 72.8,254.0 78.2,254.0 83.6,254.0 88.9,254.0 94.3,254.0 99.7,254.0 105.0,254.0 110.4,254.0 115.8,243.6 121.1,254.0 126.5,254.0 131.9,254.0 137.2,254.0 142.6,254.0 148.0,254.0 153.4,254.0 158.7,254.0 164.1,254.0 169.5,254.0 174.8,254.0 180.2,254.0 185.6,254.0 190.9,254.0 196.3,254.0 201.7,254.0 207.0,254.0 212.4,254.0 217.8,254.0 223.1,254.0 228.5,254.0 233.9,254.0 239.2,254.0 244.6,254.0 250.0,254.0 255.3,254.0 260.7,254.0 266.1,254.0 271.4,254.0 276.8,254.0 282.2,254.0 287.5,254.0 292.9,254.0 298.3,254.0 303.6,254.0 309.0,254.0 314.4,254.0 319.7,254.0 325.1,254.0 330.5,254.0 335.8,254.0 341.2,254.0 346.6,254.0 351.9,254.0 357.3,254.0 362.7,254.0 368.1,254.0 373.4,254.0 378.8,254.0 384.2,254.0 389.5,254.0 394.9,254.0 400.3,254.0 405.6,254.0 411.0,254.0 416.4,254.0 421.7,254.0 427.1,254.0 432.5,254.0 437.8,254.0 443.2,254.0 448.6,254.0 453.9,254.0 459.3,254.0 464.7,254.0 470.0,254.0 475.4,254.0 480.8,254.0 486.1,254.0 491.5,254.0 496.9,254.0 502.2,254.0 507.6,254.0 513.0,254.0 518.3,254.0 523.7,243.6 529.1,254.0 534.4,254.0 539.8,254.0 545.2,254.0 550.5,254.0 555.9,254.0 561.3,254.0 566.6,254.0 572.0,254.0 577.4,254.0 582.8,254.0 588.1,254.0 593.5,254.0 598.9,254.0 604.2,243.6 609.6,243.6 615.0,254.0 620.3,254.0 625.7,243.6 631.1,254.0 636.4,254.0 641.8,254.0 647.2,254.0 652.5,254.0 657.9,254.0 663.3,254.0 668.6,254.0 674.0,243.6" fill="none" stroke="#f59e0b" stroke-width="2"/>
<polyline points="46.0,191.6 51.4,212.4 56.7,191.6 62.1,46.0 67.5,191.6 72.8,181.2 78.2,222.8 83.6,191.6 88.9,191.6 94.3,212.4 99.7,129.2 105.0,191.6 110.4,160.4 115.8,150.0 121.1,212.4 126.5,181.2 131.9,191.6 137.2,150.0 142.6,202.0 148.0,181.2 153.4,181.2 158.7,191.6 164.1,98.0 169.5,191.6 174.8,254.0 180.2,160.4 185.6,160.4 190.9,181.2 196.3,243.6 201.7,118.8 207.0,212.4 212.4,191.6 217.8,150.0 223.1,139.6 228.5,202.0 233.9,170.8 239.2,160.4 244.6,160.4 250.0,118.8 255.3,129.2 260.7,181.2 266.1,191.6 271.4,170.8 276.8,139.6 282.2,139.6 287.5,222.8 292.9,139.6 298.3,160.4 303.6,118.8 309.0,170.8 314.4,129.2 319.7,160.4 325.1,118.8 330.5,181.2 335.8,202.0 341.2,212.4 346.6,202.0 351.9,202.0 357.3,139.6 362.7,139.6 368.1,98.0 373.4,160.4 378.8,191.6 384.2,108.4 389.5,98.0 394.9,181.2 400.3,139.6 405.6,191.6 411.0,181.2 416.4,139.6 421.7,160.4 427.1,139.6 432.5,139.6 437.8,118.8 443.2,98.0 448.6,77.2 453.9,150.0 459.3,191.6 464.7,170.8 470.0,170.8 475.4,160.4 480.8,202.0 486.1,191.6 491.5,98.0 496.9,118.8 502.2,118.8 507.6,170.8 513.0,170.8 518.3,129.2 523.7,202.0 529.1,118.8 534.4,181.2 539.8,160.4 545.2,129.2 550.5,139.6 555.9,160.4 561.3,170.8 566.6,118.8 572.0,181.2 577.4,139.6 582.8,212.4 588.1,222.8 593.5,212.4 598.9,181.2 604.2,212.4 609.6,139.6 615.0,139.6 620.3,129.2 625.7,212.4 631.1,129.2 636.4,170.8 641.8,118.8 647.2,129.2 652.5,129.2 657.9,98.0 663.3,160.4 668.6,202.0 674.0,170.8" fill="none" stroke="#ef4444" stroke-width="2"/>
<rect x="46" y="8" width="9" height="9" fill="#10b981"/>
<text x="60" y="17" fill="#c7ccd4">무작위 상대 승률</text>
<rect x="211" y="8" width="9" height="9" fill="#f59e0b"/>
<text x="225" y="17" fill="#c7ccd4">욕심쟁이 상대 승률</text>
<rect x="376" y="8" width="9" height="9" fill="#ef4444"/>
<text x="390" y="17" fill="#c7ccd4">이전 버전 상대 승률</text>
<text x="674" y="286" fill="#7a828e" text-anchor="end">5x5 · 가로축 = 반복 회차</text>
</svg>